%FSLAX25Y25*%
%MOIN*%
G70*
G01*
G75*
G04 Layer_Physical_Order=1*
G04 Layer_Color=255*
%ADD10O,0.02953X0.01181*%
%ADD11O,0.01181X0.02953*%
%ADD12R,0.14173X0.14173*%
%ADD13R,0.12992X0.09449*%
%ADD14R,0.05118X0.02165*%
%ADD15C,0.01181*%
%ADD16C,0.05512*%
%ADD17C,0.04724*%
%ADD18C,0.05118*%
%ADD19R,0.05906X0.05906*%
%ADD20C,0.05906*%
%ADD21R,0.05906X0.05906*%
%ADD22C,0.06496*%
%ADD23O,0.09843X0.05512*%
G04:AMPARAMS|DCode=24|XSize=59.84mil|YSize=59.84mil|CornerRadius=14.96mil|HoleSize=0mil|Usage=FLASHONLY|Rotation=270.000|XOffset=0mil|YOffset=0mil|HoleType=Round|Shape=RoundedRectangle|*
%AMROUNDEDRECTD24*
21,1,0.05984,0.02992,0,0,270.0*
21,1,0.02992,0.05984,0,0,270.0*
1,1,0.02992,-0.01496,-0.01496*
1,1,0.02992,-0.01496,0.01496*
1,1,0.02992,0.01496,0.01496*
1,1,0.02992,0.01496,-0.01496*
%
%ADD24ROUNDEDRECTD24*%
%ADD25C,0.05984*%
%ADD26C,0.06299*%
%ADD27C,0.01969*%
D10*
X441862Y430398D02*
D03*
Y427839D02*
D03*
Y425280D02*
D03*
Y422720D02*
D03*
Y420161D02*
D03*
Y417602D02*
D03*
X462138D02*
D03*
Y420161D02*
D03*
Y422720D02*
D03*
Y425280D02*
D03*
Y427839D02*
D03*
Y430398D02*
D03*
D11*
X445602Y413862D02*
D03*
X448161D02*
D03*
X450720D02*
D03*
X453280D02*
D03*
X455839D02*
D03*
X458398D02*
D03*
Y434138D02*
D03*
X455839D02*
D03*
X453280D02*
D03*
X450720D02*
D03*
X448161D02*
D03*
X445602D02*
D03*
D12*
X452000Y424000D02*
D03*
D13*
X642000Y503181D02*
D03*
Y475819D02*
D03*
D14*
X371224Y336740D02*
D03*
Y329260D02*
D03*
X361776D02*
D03*
Y333000D02*
D03*
Y336740D02*
D03*
D15*
X453280Y403820D02*
X455600Y401500D01*
X450720Y404320D02*
Y413862D01*
X436000Y389600D02*
X450720Y404320D01*
X388000Y376000D02*
X398500Y386500D01*
X388000Y354500D02*
Y376000D01*
Y354500D02*
X403500Y339000D01*
X527500Y396500D02*
X541500Y382500D01*
Y348000D02*
Y382500D01*
X529500Y336000D02*
X541500Y348000D01*
X231500Y428000D02*
Y438000D01*
X231000Y438500D02*
X231500Y438000D01*
X231000Y438500D02*
Y448500D01*
X334600Y352800D02*
X344240D01*
X326800Y345000D02*
X334600Y352800D01*
X326800Y330600D02*
Y345000D01*
Y330600D02*
X328140Y329260D01*
X331000Y336500D02*
X334500Y333000D01*
X361776D01*
X340500Y461000D02*
X350000Y451500D01*
X340500Y461000D02*
Y517000D01*
X251299Y392299D02*
X274500Y415500D01*
X251299Y337000D02*
Y392299D01*
X596000Y522000D02*
X635000D01*
X642000Y515000D01*
Y503181D02*
Y515000D01*
X314500Y415500D02*
X333000Y434000D01*
Y434500D01*
X350000Y451500D01*
X448161Y410500D02*
Y413862D01*
X419900Y410500D02*
X448161D01*
X418900Y411500D02*
X419900Y410500D01*
X350000Y411500D02*
X418900D01*
X350000Y381500D02*
X366200Y365300D01*
Y333000D02*
Y365300D01*
X361776Y333000D02*
X366200D01*
X620500Y396500D02*
X651600Y427600D01*
Y501581D01*
X650000Y503181D02*
X651600Y501581D01*
X642000Y503181D02*
X650000D01*
X350000Y391500D02*
X428400D01*
X431043Y388857D01*
Y387500D02*
Y388857D01*
Y387500D02*
X433943Y384600D01*
X458950D01*
X460600Y386250D01*
Y406000D01*
X455839Y410761D02*
X460600Y406000D01*
X455839Y410761D02*
Y413862D01*
X458398Y412031D02*
Y413862D01*
Y412031D02*
X498500Y371929D01*
Y344500D02*
Y371929D01*
X556000Y505387D02*
Y522000D01*
X530748Y480135D02*
X556000Y505387D01*
X530748Y438948D02*
Y480135D01*
X522198Y430398D02*
X530748Y438948D01*
X462138Y430398D02*
X522198D01*
X540000Y472000D02*
X550750Y461250D01*
Y406500D02*
Y461250D01*
X350000Y481500D02*
X376500Y508000D01*
X398000D01*
X614700Y400700D02*
X620500Y406500D01*
X525000Y400700D02*
X614700D01*
X521600Y404100D02*
X525000Y400700D01*
X521600Y404100D02*
Y408374D01*
X504694Y425280D02*
X521600Y408374D01*
X462138Y425280D02*
X504694D01*
X445602Y434138D02*
Y445850D01*
X448721Y448969D01*
Y470621D01*
X452800Y474700D01*
X490500D01*
X497800Y467400D01*
X512500D01*
X514600Y469500D01*
Y513400D01*
X506000Y522000D02*
X514600Y513400D01*
X504200Y477800D02*
X510000Y472000D01*
X450900Y477800D02*
X504200D01*
X442800Y469700D02*
X450900Y477800D01*
X442580Y457880D02*
X442800Y458100D01*
X430620Y457880D02*
X442580D01*
X423041Y450300D02*
X430620Y457880D01*
X350000Y421500D02*
X378800Y450300D01*
X438000Y518000D02*
X442800Y513200D01*
X420161Y450300D02*
X427741Y457880D01*
X566000Y505528D02*
Y522000D01*
X533110Y472638D02*
X566000Y505528D01*
X533110Y434978D02*
Y472638D01*
X525971Y427839D02*
X533110Y434978D01*
X462138Y427839D02*
X525971D01*
X419900Y438200D02*
X435380Y422720D01*
X441862D01*
X440000Y427839D02*
X441862D01*
X438614Y429225D02*
X440000Y427839D01*
X438614Y429225D02*
Y441486D01*
X437700Y442400D02*
X438614Y441486D01*
X435900Y458100D02*
X442800Y465000D01*
X422800Y458100D02*
X435900D01*
X399879Y427479D02*
Y435179D01*
Y427479D02*
X412783Y414575D01*
X437825D01*
X438600Y413800D01*
X445602D02*
Y413862D01*
X408000Y508000D02*
X410700Y505300D01*
Y465200D02*
Y505300D01*
X405500Y460000D02*
X410700Y465200D01*
X345200Y345000D02*
X353460Y336740D01*
X345200Y435000D02*
X346900Y436700D01*
X359600D01*
X403200Y480300D01*
Y510000D01*
X406200Y513000D01*
X430000D01*
X433000Y516000D01*
Y520000D01*
X435800Y522800D01*
X471600D01*
X472400Y522000D01*
X486000D01*
X371224Y329260D02*
X387400D01*
X387660Y329000D01*
X403500D01*
X568500Y472500D02*
X576000Y480000D01*
Y522000D01*
X462138Y417602D02*
X463917D01*
X469120Y412400D01*
X484680Y422720D02*
X487700Y419700D01*
X462138Y422720D02*
X484680D01*
X450720Y434138D02*
Y435000D01*
X450917Y435197D01*
Y440000D01*
X457317Y446400D01*
X457500D01*
X371224Y336740D02*
X389300D01*
X392140Y333900D01*
X405000D01*
X407700Y331200D01*
Y324800D02*
Y331200D01*
X405000Y322100D02*
X407700Y324800D01*
X326700Y322100D02*
X405000D01*
X309900Y338900D02*
X326700Y322100D01*
X309900Y338900D02*
Y513900D01*
X318300Y522300D01*
X345000D01*
X350000Y517300D01*
Y481500D02*
Y517300D01*
X293000Y374000D02*
X307700Y388700D01*
Y517500D01*
X315000Y524800D01*
X345000D01*
X350000Y519800D01*
X462138Y420161D02*
X480239D01*
X487900Y412500D01*
X492500D01*
X500000Y420000D01*
X448161Y434138D02*
Y444491D01*
X455921Y452250D01*
X460984D01*
X471634Y462900D01*
X513000D01*
X517000Y466900D01*
Y517000D01*
X516000Y518000D02*
X517000Y517000D01*
X516000Y518000D02*
Y522000D01*
X418000Y518000D02*
X431000Y531000D01*
X517000D01*
X526000Y522000D01*
X453280Y434138D02*
Y438603D01*
X455860Y441183D01*
X460000D01*
X474217Y455400D01*
X517100D01*
X523661Y461961D01*
Y519661D01*
X526000Y522000D01*
X458398Y434138D02*
Y434551D01*
X509051D02*
X528386Y453886D01*
Y492838D01*
X546000Y510452D01*
Y522000D01*
X455839Y434138D02*
Y436391D01*
X458269Y438821D01*
X508121D01*
X526024Y456724D01*
Y512024D01*
X536000Y522000D01*
X453280Y403820D02*
Y413862D01*
X416500Y426800D02*
X425698Y417602D01*
X441862D01*
X432425Y420161D02*
X441862D01*
X420186Y432400D02*
X432425Y420161D01*
X404800Y432400D02*
X420186D01*
X441300Y451900D02*
X442700Y450500D01*
X441862Y430398D02*
X442700D01*
X243425Y337000D02*
Y376075D01*
X231500Y388000D02*
X243425Y376075D01*
X598500Y472500D02*
X601819Y475819D01*
X642000D01*
X432879Y428652D02*
Y432401D01*
Y428652D02*
X436252Y425280D01*
X441862D01*
X331000Y326500D02*
X333760Y329260D01*
X361776D01*
X350000Y517300D02*
Y519800D01*
X458398Y434551D02*
X509051D01*
X399879Y435179D02*
X415000Y450300D01*
X422800Y458100D01*
X378800Y450300D02*
X415000D01*
X420161D01*
X423041D01*
X427741Y457880D02*
X430620D01*
X438600Y413800D02*
X445602D01*
X442800Y458100D02*
Y465000D01*
Y469700D01*
Y513200D01*
X442700Y430398D02*
Y450500D01*
X328140Y329260D02*
X333760D01*
X344240Y352800D02*
X345200Y351840D01*
X360300Y336740D01*
X345200Y345000D02*
Y351840D01*
Y435000D01*
X353460Y336740D02*
X360300D01*
X361776D01*
D16*
X568500Y472500D02*
D03*
X598500D02*
D03*
X231500Y428000D02*
D03*
Y388000D02*
D03*
X647500Y348500D02*
D03*
Y378500D02*
D03*
X510000Y472000D02*
D03*
X540000D02*
D03*
X264000Y449500D02*
D03*
Y479500D02*
D03*
X314500Y415500D02*
D03*
X274500D02*
D03*
D17*
X498500Y344500D02*
D03*
Y334500D02*
D03*
X529500Y346000D02*
D03*
Y336000D02*
D03*
X557500Y347000D02*
D03*
Y337000D02*
D03*
X461000Y470500D02*
D03*
Y460500D02*
D03*
X293000Y374000D02*
D03*
Y384000D02*
D03*
X403500Y329000D02*
D03*
Y339000D02*
D03*
X331000Y326500D02*
D03*
Y336500D02*
D03*
X527500Y406500D02*
D03*
Y396500D02*
D03*
X550750Y406500D02*
D03*
Y396500D02*
D03*
X574000Y406500D02*
D03*
Y396500D02*
D03*
X597250Y406500D02*
D03*
Y396500D02*
D03*
X620500Y406500D02*
D03*
Y396500D02*
D03*
X454500Y349000D02*
D03*
X464500D02*
D03*
X398500Y376500D02*
D03*
Y386500D02*
D03*
X405500Y470000D02*
D03*
Y460000D02*
D03*
D18*
X438102Y468500D02*
D03*
X425898D02*
D03*
X430602Y378500D02*
D03*
X418398D02*
D03*
D19*
X486000Y522000D02*
D03*
X398000Y508000D02*
D03*
D20*
X496000Y522000D02*
D03*
X506000D02*
D03*
X516000D02*
D03*
X526000D02*
D03*
X536000D02*
D03*
X546000D02*
D03*
X556000D02*
D03*
X566000D02*
D03*
X576000D02*
D03*
X586000D02*
D03*
X596000D02*
D03*
X350000Y471500D02*
D03*
Y461500D02*
D03*
Y451500D02*
D03*
Y441500D02*
D03*
Y431500D02*
D03*
Y421500D02*
D03*
Y411500D02*
D03*
Y401500D02*
D03*
Y391500D02*
D03*
Y381500D02*
D03*
Y371500D02*
D03*
X398000Y518000D02*
D03*
X408000Y508000D02*
D03*
Y518000D02*
D03*
X418000Y508000D02*
D03*
Y518000D02*
D03*
X428000Y508000D02*
D03*
Y518000D02*
D03*
X438000Y508000D02*
D03*
Y518000D02*
D03*
D21*
X350000Y481500D02*
D03*
D22*
X231000Y518500D02*
D03*
Y448500D02*
D03*
X270500Y517000D02*
D03*
X340500D02*
D03*
D23*
X260618Y347268D02*
D03*
Y325732D02*
D03*
X233059D02*
D03*
Y347268D02*
D03*
D24*
X235933Y336500D02*
D03*
D25*
X243807D02*
D03*
X251681D02*
D03*
X259555D02*
D03*
D26*
X455600Y401500D02*
D03*
X436000Y389600D02*
D03*
X419900Y438200D02*
D03*
X437700Y442400D02*
D03*
X452000Y424000D02*
D03*
X469120Y412400D02*
D03*
X487700Y419700D02*
D03*
X457500Y446400D02*
D03*
X500000Y420000D02*
D03*
X416500Y426800D02*
D03*
X404800Y432400D02*
D03*
X441300Y451900D02*
D03*
X432879Y432401D02*
D03*
D27*
X447669Y428331D02*
D03*
X452000D02*
D03*
X456331D02*
D03*
X447669Y424000D02*
D03*
X452000D02*
D03*
X456331D02*
D03*
X447669Y419669D02*
D03*
X452000D02*
D03*
X456331D02*
D03*
M02*
