%FSLAX25Y25*%
%MOIN*%
G70*
G01*
G75*
G04 Layer_Color=8421504*
%ADD10O,0.02953X0.01181*%
%ADD11O,0.01181X0.02953*%
%ADD12R,0.14173X0.14173*%
%ADD13R,0.12992X0.09449*%
%ADD14R,0.05118X0.02165*%
%ADD15C,0.01181*%
%ADD16C,0.05512*%
%ADD17C,0.04724*%
%ADD18C,0.05118*%
%ADD19R,0.05906X0.05906*%
%ADD20C,0.05906*%
%ADD21R,0.05906X0.05906*%
%ADD22C,0.06496*%
%ADD23O,0.09843X0.05512*%
G04:AMPARAMS|DCode=24|XSize=59.84mil|YSize=59.84mil|CornerRadius=14.96mil|HoleSize=0mil|Usage=FLASHONLY|Rotation=270.000|XOffset=0mil|YOffset=0mil|HoleType=Round|Shape=RoundedRectangle|*
%AMROUNDEDRECTD24*
21,1,0.05984,0.02992,0,0,270.0*
21,1,0.02992,0.05984,0,0,270.0*
1,1,0.02992,-0.01496,-0.01496*
1,1,0.02992,-0.01496,0.01496*
1,1,0.02992,0.01496,0.01496*
1,1,0.02992,0.01496,-0.01496*
%
%ADD24ROUNDEDRECTD24*%
%ADD25C,0.05984*%
%ADD26C,0.06299*%
%ADD27C,0.01969*%
%ADD28C,0.04000*%
%ADD29C,0.07347*%
%ADD30C,0.06756*%
%ADD31C,0.06756*%
%ADD32C,0.07543*%
%ADD33C,0.07937*%
%ADD34O,0.09906X0.06953*%
%ADD35C,0.01000*%
%ADD36C,0.00984*%
%ADD37C,0.00787*%
%ADD38C,0.00800*%
D10*
X441862Y430398D02*
D03*
Y427839D02*
D03*
Y425280D02*
D03*
Y422720D02*
D03*
Y420161D02*
D03*
Y417602D02*
D03*
X462138D02*
D03*
Y420161D02*
D03*
Y422720D02*
D03*
Y425280D02*
D03*
Y427839D02*
D03*
Y430398D02*
D03*
D11*
X445602Y413862D02*
D03*
X448161D02*
D03*
X450720D02*
D03*
X453280D02*
D03*
X455839D02*
D03*
X458398D02*
D03*
Y434138D02*
D03*
X455839D02*
D03*
X453280D02*
D03*
X450720D02*
D03*
X448161D02*
D03*
X445602D02*
D03*
D12*
X452000Y424000D02*
D03*
D13*
X642000Y503181D02*
D03*
Y475819D02*
D03*
D14*
X371224Y336740D02*
D03*
Y329260D02*
D03*
X361776D02*
D03*
Y333000D02*
D03*
Y336740D02*
D03*
M02*
