%FSLAX25Y25*%
%MOIN*%
G70*
G01*
G75*
G04 Layer_Physical_Order=3*
G04 Layer_Color=16711680*
%ADD10O,0.02953X0.01181*%
%ADD11O,0.01181X0.02953*%
%ADD12R,0.14173X0.14173*%
%ADD13R,0.12992X0.09449*%
%ADD14R,0.05118X0.02165*%
%ADD15C,0.01181*%
%ADD16C,0.05512*%
%ADD17C,0.04724*%
%ADD18C,0.05118*%
%ADD19R,0.05906X0.05906*%
%ADD20C,0.05906*%
%ADD21R,0.05906X0.05906*%
%ADD22C,0.06496*%
%ADD23O,0.09843X0.05512*%
G04:AMPARAMS|DCode=24|XSize=59.84mil|YSize=59.84mil|CornerRadius=14.96mil|HoleSize=0mil|Usage=FLASHONLY|Rotation=270.000|XOffset=0mil|YOffset=0mil|HoleType=Round|Shape=RoundedRectangle|*
%AMROUNDEDRECTD24*
21,1,0.05984,0.02992,0,0,270.0*
21,1,0.02992,0.05984,0,0,270.0*
1,1,0.02992,-0.01496,-0.01496*
1,1,0.02992,-0.01496,0.01496*
1,1,0.02992,0.01496,0.01496*
1,1,0.02992,0.01496,-0.01496*
%
%ADD24ROUNDEDRECTD24*%
%ADD25C,0.05984*%
%ADD26C,0.06299*%
%ADD27C,0.01969*%
%ADD28C,0.04000*%
%ADD29C,0.07347*%
%ADD30C,0.06756*%
%ADD31C,0.06756*%
%ADD32C,0.07543*%
%ADD33C,0.07937*%
%ADD34O,0.09906X0.06953*%
%ADD35C,0.01000*%
D15*
X460500Y389500D02*
X520500D01*
X453500D02*
X460500D01*
X464000Y393000D01*
Y403339D01*
X448479Y394521D02*
X453500Y389500D01*
X520500D02*
X527500Y396500D01*
X448479Y394521D02*
X452030Y390970D01*
X447669Y419669D02*
X464000Y403339D01*
X458500Y384500D02*
X498500Y344500D01*
X441100Y384500D02*
X458500D01*
X436000Y389600D02*
X441100Y384500D01*
X350000Y401500D02*
X455600D01*
X284900Y499100D02*
X399100D01*
X270500Y513500D02*
X284900Y499100D01*
X270500Y513500D02*
Y517000D01*
X451000Y352500D02*
Y367800D01*
X440300Y378500D02*
X451000Y367800D01*
X430602Y378500D02*
X440300D01*
X527500Y406500D02*
X550750D01*
X574000D01*
X597250D01*
X529500Y346000D02*
X543000D01*
X544000Y347000D01*
X557500D01*
X498500Y344500D02*
X513200D01*
X514700Y346000D01*
X529500D01*
X408000Y508000D02*
X418000D01*
X529500Y336000D02*
X543000D01*
X544000Y337000D01*
X557500D01*
X498500Y334500D02*
X513200D01*
X514700Y336000D01*
X529500D01*
X527500Y396500D02*
X550750D01*
X574000D01*
X597250D01*
X620500D01*
X591200Y526800D02*
X596000Y522000D01*
X500800Y526800D02*
X591200D01*
X496000Y522000D02*
X500800Y526800D01*
X408000Y518000D02*
X412800Y513200D01*
X450500D01*
X467400Y496300D01*
X520300D01*
X546000Y522000D01*
X529000Y515000D02*
X536000Y522000D01*
X469800Y515000D02*
X529000D01*
X462000Y522800D02*
X469800Y515000D01*
X402800Y522800D02*
X462000D01*
X398000Y518000D02*
X402800Y522800D01*
X399100Y499100D02*
X408000Y508000D01*
X326000Y331500D02*
X331000Y326500D01*
X241051Y331500D02*
X326000D01*
X235551Y337000D02*
X241051Y331500D01*
X625300Y400700D02*
X647500Y378500D01*
X603050Y400700D02*
X625300D01*
X597250Y406500D02*
X603050Y400700D01*
X405500Y460000D02*
X452643D01*
X453143Y460500D01*
X461000D01*
X398500Y386500D02*
X406521Y394521D01*
X350000Y451500D02*
X363300Y438200D01*
X419900D01*
X437700Y442400D02*
X461200D01*
X465200Y446400D01*
X460000Y481500D02*
X465200Y476300D01*
X231000Y518500D02*
X250800D01*
X252300Y517000D01*
X270500D01*
X433200Y503200D02*
X438000Y508000D01*
X422800Y503200D02*
X433200D01*
X418000Y508000D02*
X422800Y503200D01*
X293000Y384000D02*
X295500Y381500D01*
X350000D01*
X355000Y386500D01*
X398500D01*
X259173Y337000D02*
X295100D01*
X295600Y336500D01*
X331000D01*
X557500Y347000D02*
X602500D01*
X604000Y348500D01*
X647500D01*
X398500Y376500D02*
X400500Y378500D01*
X418398D01*
X231000Y448500D02*
X247500D01*
X248500Y449500D01*
X264000D01*
Y479500D02*
X272000Y471500D01*
X350000D01*
X469120Y412400D02*
X580000D01*
X586000Y418400D01*
Y522000D01*
X487700Y419700D02*
X540000Y472000D01*
X538750Y476800D02*
X540000Y475550D01*
Y472000D02*
Y475550D01*
X500000Y420000D02*
X576000Y496000D01*
Y522000D01*
X350000Y431500D02*
X354700Y426800D01*
X416500D01*
X359100Y432400D02*
X404800D01*
X350000Y441500D02*
X359100Y432400D01*
X350000Y471500D02*
X387200D01*
X402834Y455866D01*
X444834D01*
X448800Y451900D01*
X441300D02*
X448800D01*
X264000Y449500D02*
X276000Y461500D01*
X350000D01*
X357996Y453504D01*
X411776D01*
X432879Y432401D01*
X453800Y463300D02*
X461000Y470500D01*
X431098Y463300D02*
X453800D01*
X425898Y468500D02*
X431098Y463300D01*
X432902Y473700D02*
X438102Y468500D01*
X409200Y473700D02*
X432902D01*
X405500Y470000D02*
X409200Y473700D01*
X490300Y527700D02*
X496000Y522000D01*
X400000Y527700D02*
X490300D01*
X393200Y520900D02*
X400000Y527700D01*
X393200Y514900D02*
Y520900D01*
Y514900D02*
X395000Y513100D01*
X402900D01*
X408000Y508000D01*
X350000Y481500D02*
X460000D01*
X530500D01*
X465200Y446400D02*
Y454100D01*
Y476300D01*
X457500Y446400D02*
X465200Y454100D01*
X487900Y476800D01*
X530500Y481500D02*
X535200Y476800D01*
X540000Y472000D01*
X487900Y476800D02*
X535200D01*
X538750D01*
X451000Y352500D02*
X454500Y349000D01*
X464500D02*
X479000Y334500D01*
X498500D01*
X406521Y394521D02*
X448479D01*
D16*
X568500Y472500D02*
D03*
X598500D02*
D03*
X231500Y428000D02*
D03*
Y388000D02*
D03*
X647500Y348500D02*
D03*
Y378500D02*
D03*
X510000Y472000D02*
D03*
X540000D02*
D03*
X264000Y449500D02*
D03*
Y479500D02*
D03*
X314500Y415500D02*
D03*
X274500D02*
D03*
D17*
X498500Y344500D02*
D03*
Y334500D02*
D03*
X529500Y346000D02*
D03*
Y336000D02*
D03*
X557500Y347000D02*
D03*
Y337000D02*
D03*
X461000Y470500D02*
D03*
Y460500D02*
D03*
X293000Y374000D02*
D03*
Y384000D02*
D03*
X403500Y329000D02*
D03*
Y339000D02*
D03*
X331000Y326500D02*
D03*
Y336500D02*
D03*
X527500Y406500D02*
D03*
Y396500D02*
D03*
X550750Y406500D02*
D03*
Y396500D02*
D03*
X574000Y406500D02*
D03*
Y396500D02*
D03*
X597250Y406500D02*
D03*
Y396500D02*
D03*
X620500Y406500D02*
D03*
Y396500D02*
D03*
X454500Y349000D02*
D03*
X464500D02*
D03*
X398500Y376500D02*
D03*
Y386500D02*
D03*
X405500Y470000D02*
D03*
Y460000D02*
D03*
D18*
X438102Y468500D02*
D03*
X425898D02*
D03*
X430602Y378500D02*
D03*
X418398D02*
D03*
D19*
X486000Y522000D02*
D03*
X398000Y508000D02*
D03*
D20*
X496000Y522000D02*
D03*
X506000D02*
D03*
X516000D02*
D03*
X526000D02*
D03*
X536000D02*
D03*
X546000D02*
D03*
X556000D02*
D03*
X566000D02*
D03*
X576000D02*
D03*
X586000D02*
D03*
X596000D02*
D03*
X350000Y471500D02*
D03*
Y461500D02*
D03*
Y451500D02*
D03*
Y441500D02*
D03*
Y431500D02*
D03*
Y421500D02*
D03*
Y411500D02*
D03*
Y401500D02*
D03*
Y391500D02*
D03*
Y381500D02*
D03*
Y371500D02*
D03*
X398000Y518000D02*
D03*
X408000Y508000D02*
D03*
Y518000D02*
D03*
X418000Y508000D02*
D03*
Y518000D02*
D03*
X428000Y508000D02*
D03*
Y518000D02*
D03*
X438000Y508000D02*
D03*
Y518000D02*
D03*
D21*
X350000Y481500D02*
D03*
D22*
X231000Y518500D02*
D03*
Y448500D02*
D03*
X270500Y517000D02*
D03*
X340500D02*
D03*
D23*
X260618Y347268D02*
D03*
Y325732D02*
D03*
X233059D02*
D03*
Y347268D02*
D03*
D24*
X235933Y336500D02*
D03*
D25*
X243807D02*
D03*
X251681D02*
D03*
X259555D02*
D03*
D26*
X455600Y401500D02*
D03*
X436000Y389600D02*
D03*
X419900Y438200D02*
D03*
X437700Y442400D02*
D03*
X452000Y424000D02*
D03*
X469120Y412400D02*
D03*
X487700Y419700D02*
D03*
X457500Y446400D02*
D03*
X500000Y420000D02*
D03*
X416500Y426800D02*
D03*
X404800Y432400D02*
D03*
X441300Y451900D02*
D03*
X432879Y432401D02*
D03*
D27*
X447669Y428331D02*
D03*
X452000D02*
D03*
X456331D02*
D03*
X447669Y424000D02*
D03*
X452000D02*
D03*
X456331D02*
D03*
X447669Y419669D02*
D03*
X452000D02*
D03*
X456331D02*
D03*
D35*
X533000Y321998D02*
Y316000D01*
Y317999D01*
X536999Y321998D01*
X534000Y318999D01*
X536999Y316000D01*
X541997D02*
X539998D01*
X538998Y317000D01*
Y318999D01*
X539998Y319999D01*
X541997D01*
X542997Y318999D01*
Y317999D01*
X538998D01*
X544996Y319999D02*
Y317000D01*
X545996Y316000D01*
X548995D01*
Y315000D01*
X547995Y314001D01*
X546995D01*
X548995Y316000D02*
Y319999D01*
X550994Y321998D02*
Y316000D01*
X553993D01*
X554993Y317000D01*
Y317999D01*
Y318999D01*
X553993Y319999D01*
X550994D01*
X557992Y316000D02*
X559991D01*
X560991Y317000D01*
Y318999D01*
X559991Y319999D01*
X557992D01*
X556992Y318999D01*
Y317000D01*
X557992Y316000D01*
X563990Y319999D02*
X565989D01*
X566989Y318999D01*
Y316000D01*
X563990D01*
X562990Y317000D01*
X563990Y317999D01*
X566989D01*
X568988Y319999D02*
Y316000D01*
Y317999D01*
X569988Y318999D01*
X570988Y319999D01*
X571987D01*
X578985Y321998D02*
Y316000D01*
X575986D01*
X574986Y317000D01*
Y318999D01*
X575986Y319999D01*
X578985D01*
X586982Y321998D02*
X590981D01*
Y320998D01*
X586982Y317000D01*
Y316000D01*
X590981D01*
X595980D02*
X593980D01*
X592981Y317000D01*
Y318999D01*
X593980Y319999D01*
X595980D01*
X596979Y318999D01*
Y317999D01*
X592981D01*
X598979Y319999D02*
Y316000D01*
Y317999D01*
X599978Y318999D01*
X600978Y319999D01*
X601978D01*
X605976Y316000D02*
X607976D01*
X608975Y317000D01*
Y318999D01*
X607976Y319999D01*
X605976D01*
X604977Y318999D01*
Y317000D01*
X605976Y316000D01*
X616973Y318999D02*
X620972D01*
X632968Y321998D02*
Y316000D01*
X629969D01*
X628969Y317000D01*
Y318999D01*
X629969Y319999D01*
X632968D01*
X634967Y316000D02*
Y319999D01*
X635967D01*
X636966Y318999D01*
Y316000D01*
Y318999D01*
X637966Y319999D01*
X638966Y318999D01*
Y316000D01*
X640965Y314001D02*
Y319999D01*
X643964D01*
X644964Y318999D01*
Y317000D01*
X643964Y316000D01*
X640965D01*
X646963Y319999D02*
Y316000D01*
Y317999D01*
X647963Y318999D01*
X648962Y319999D01*
X649962D01*
X653961Y316000D02*
X655960D01*
X656960Y317000D01*
Y318999D01*
X655960Y319999D01*
X653961D01*
X652961Y318999D01*
Y317000D01*
X653961Y316000D01*
X658959D02*
X660959D01*
X659959D01*
Y321998D01*
X658959Y320998D01*
X666957Y316000D02*
Y321998D01*
X663958Y318999D01*
X667956D01*
M02*
