%FSLAX44Y44*%
%MOMM*%
G71*
G01*
G75*
G04 Layer_Color=2752767*
%ADD10R,2.4000X3.3000*%
%ADD11R,1.3000X0.5500*%
%ADD12O,0.7500X0.3000*%
%ADD13O,0.3000X0.7500*%
%ADD14R,3.6000X3.6000*%
%ADD15C,0.6530*%
%ADD16C,0.3000*%
%ADD17C,0.2540*%
%ADD18C,1.3000*%
%ADD19C,1.4000*%
%ADD20R,1.5000X1.5000*%
%ADD21C,1.5000*%
%ADD22R,1.5000X1.5000*%
%ADD23C,1.2000*%
%ADD24O,2.5000X1.4000*%
G04:AMPARAMS|DCode=25|XSize=1.52mm|YSize=1.52mm|CornerRadius=0.38mm|HoleSize=0mm|Usage=FLASHONLY|Rotation=270.000|XOffset=0mm|YOffset=0mm|HoleType=Round|Shape=RoundedRectangle|*
%AMROUNDEDRECTD25*
21,1,1.5200,0.7600,0,0,270.0*
21,1,0.7600,1.5200,0,0,270.0*
1,1,0.7600,-0.3800,-0.3800*
1,1,0.7600,-0.3800,0.3800*
1,1,0.7600,0.3800,0.3800*
1,1,0.7600,0.3800,-0.3800*
%
%ADD25ROUNDEDRECTD25*%
%ADD26C,1.5200*%
%ADD27C,1.6500*%
%ADD28C,1.1000*%
%ADD29C,1.2700*%
%ADD30C,0.5000*%
%ADD31C,1.0160*%
%ADD32C,1.7160*%
%ADD33C,1.8660*%
%ADD34C,1.9160*%
%ADD35C,1.7160*%
%ADD36O,2.5160X1.7660*%
%ADD37C,2.0160*%
%ADD38C,0.2000*%
%ADD39C,0.2500*%
%ADD40C,0.2032*%
%ADD41R,2.6032X3.5032*%
%ADD42R,1.5032X0.7532*%
%ADD43O,0.9532X0.5032*%
%ADD44O,0.5032X0.9532*%
%ADD45R,3.8032X3.8032*%
%ADD46C,1.5032*%
%ADD47C,1.6032*%
%ADD48R,1.7032X1.7032*%
%ADD49C,1.7032*%
%ADD50R,1.7032X1.7032*%
%ADD51C,1.4032*%
%ADD52O,2.7032X1.6032*%
G04:AMPARAMS|DCode=53|XSize=1.7232mm|YSize=1.7232mm|CornerRadius=0.4816mm|HoleSize=0mm|Usage=FLASHONLY|Rotation=270.000|XOffset=0mm|YOffset=0mm|HoleType=Round|Shape=RoundedRectangle|*
%AMROUNDEDRECTD53*
21,1,1.7232,0.7600,0,0,270.0*
21,1,0.7600,1.7232,0,0,270.0*
1,1,0.9632,-0.3800,-0.3800*
1,1,0.9632,-0.3800,0.3800*
1,1,0.9632,0.3800,0.3800*
1,1,0.9632,0.3800,-0.3800*
%
%ADD53ROUNDEDRECTD53*%
%ADD54C,1.7232*%
%ADD55C,1.8532*%
%ADD56C,1.3032*%
%ADD57C,1.4732*%
%ADD58C,0.7032*%
%ADD59C,0.1000*%
%ADD60C,0.0500*%
%ADD61C,0.1270*%
%ADD62C,0.1693*%
D61*
X1089400Y1217930D02*
Y1228090D01*
X1099560D01*
Y1217930D01*
X1089400D01*
X1120400D02*
Y1228090D01*
X1130560D01*
Y1217930D01*
X1120400D01*
X1079760Y967740D02*
Y977900D01*
X1089920D01*
Y967740D01*
X1079760D01*
X1048760D02*
Y977900D01*
X1058920D01*
Y967740D01*
X1048760D01*
X1527810Y1297940D02*
X1522730Y1308100D01*
X1532890D01*
X1527810Y1297940D01*
Y1272540D02*
X1522730Y1282700D01*
X1532890D01*
X1527810Y1272540D01*
Y1247140D02*
X1522730Y1257300D01*
X1532890D01*
X1527810Y1247140D01*
Y1221740D02*
X1522730Y1231900D01*
X1532890D01*
X1527810Y1221740D01*
Y1196340D02*
X1522730Y1206500D01*
X1532890D01*
X1527810Y1196340D01*
Y1170940D02*
X1522730Y1181100D01*
X1532890D01*
X1527810Y1170940D01*
Y1145540D02*
X1522730Y1155700D01*
X1532890D01*
X1527810Y1145540D01*
Y1120140D02*
X1522730Y1130300D01*
X1532890D01*
X1527810Y1120140D01*
Y1094740D02*
X1522730Y1104900D01*
X1532890D01*
X1527810Y1094740D01*
Y1069340D02*
X1522730Y1079500D01*
X1532890D01*
X1527810Y1069340D01*
Y1043940D02*
X1522730Y1054100D01*
X1532890D01*
X1527810Y1043940D01*
Y1018540D02*
X1522730Y1028700D01*
X1532890D01*
X1527810Y1018540D01*
X858520Y1270000D02*
X853440Y1280160D01*
X863600D01*
X858520Y1270000D01*
Y1244600D02*
X853440Y1254760D01*
X863600D01*
X858520Y1244600D01*
Y1219200D02*
X853440Y1229360D01*
X863600D01*
X858520Y1219200D01*
Y1193800D02*
X853440Y1203960D01*
X863600D01*
X858520Y1193800D01*
Y1168400D02*
X853440Y1178560D01*
X863600D01*
X858520Y1168400D01*
Y1143000D02*
X853440Y1153160D01*
X863600D01*
X858520Y1143000D01*
Y1117600D02*
X853440Y1127760D01*
X863600D01*
X858520Y1117600D01*
Y1092200D02*
X853440Y1102360D01*
X863600D01*
X858520Y1092200D01*
Y1066800D02*
X853440Y1076960D01*
X863600D01*
X858520Y1066800D01*
Y1041400D02*
X853440Y1051560D01*
X863600D01*
X858520Y1041400D01*
Y1016000D02*
X853440Y1026160D01*
X863600D01*
X858520Y1016000D01*
Y990600D02*
X853440Y1000760D01*
X863600D01*
X858520Y990600D01*
X1088390Y1294130D02*
X1083310Y1304290D01*
X1093470D01*
X1088390Y1294130D01*
Y1319530D02*
X1083310Y1329690D01*
X1093470D01*
X1088390Y1319530D01*
X1113790Y1294130D02*
X1108710Y1304290D01*
X1118870D01*
X1113790Y1294130D01*
Y1319530D02*
X1108710Y1329690D01*
X1118870D01*
X1113790Y1319530D01*
X1139190Y1294130D02*
X1134110Y1304290D01*
X1144270D01*
X1139190Y1294130D01*
Y1319530D02*
X1134110Y1329690D01*
X1144270D01*
X1139190Y1319530D01*
X1164590Y1294130D02*
X1159510Y1304290D01*
X1169670D01*
X1164590Y1294130D01*
Y1319530D02*
X1159510Y1329690D01*
X1169670D01*
X1164590Y1319530D01*
X1189990Y1294130D02*
X1184910Y1304290D01*
X1195070D01*
X1189990Y1294130D01*
Y1319530D02*
X1184910Y1329690D01*
X1195070D01*
X1189990Y1319530D01*
X1264920Y942340D02*
Y952500D01*
X1275080D01*
Y942340D01*
X1264920D01*
Y967740D02*
Y977900D01*
X1275080D01*
Y967740D01*
X1264920D01*
X1295400Y1192530D02*
Y1202690D01*
X1305560D01*
Y1192530D01*
X1295400D01*
Y1217930D02*
Y1228090D01*
X1305560D01*
Y1217930D01*
X1295400D01*
X1212850Y942340D02*
Y952500D01*
X1223010D01*
Y942340D01*
X1212850D01*
Y967740D02*
Y977900D01*
X1223010D01*
Y967740D01*
X1212850D01*
X1243330Y1192530D02*
Y1202690D01*
X1253490D01*
Y1192530D01*
X1243330D01*
Y1217930D02*
Y1228090D01*
X1253490D01*
Y1217930D01*
X1243330D01*
X1007110Y1098550D02*
Y1108710D01*
X1017270D01*
Y1098550D01*
X1007110D01*
Y1073150D02*
Y1083310D01*
X1017270D01*
Y1073150D01*
X1007110D01*
X1351280Y1098550D02*
Y1108710D01*
X1361440D01*
Y1098550D01*
X1351280D01*
Y1073150D02*
Y1083310D01*
X1361440D01*
Y1073150D01*
X1351280D01*
X1275080Y1099820D02*
Y1109980D01*
X1285240D01*
Y1099820D01*
X1275080D01*
Y1074420D02*
Y1084580D01*
X1285240D01*
Y1074420D01*
X1275080D01*
X941070Y849630D02*
Y859790D01*
X951230D01*
Y849630D01*
X941070D01*
Y875030D02*
Y885190D01*
X951230D01*
Y875030D01*
X941070D01*
X1007110Y967740D02*
Y977900D01*
X1017270D01*
Y967740D01*
X1007110D01*
Y942340D02*
Y952500D01*
X1017270D01*
Y942340D01*
X1007110D01*
X1122680Y967740D02*
Y977900D01*
X1132840D01*
Y967740D01*
X1122680D01*
Y942340D02*
Y952500D01*
X1132840D01*
Y942340D01*
X1122680D01*
X1055370Y1216660D02*
Y1226820D01*
X1065530D01*
Y1216660D01*
X1055370D01*
Y1191260D02*
Y1201420D01*
X1065530D01*
Y1191260D01*
X1055370D01*
X1155700Y1217930D02*
Y1228090D01*
X1165860D01*
Y1217930D01*
X1155700D01*
Y1192530D02*
Y1202690D01*
X1165860D01*
Y1192530D01*
X1155700D01*
X1324610Y942340D02*
Y952500D01*
X1334770D01*
Y942340D01*
X1324610D01*
Y967740D02*
Y977900D01*
X1334770D01*
Y967740D01*
X1324610D01*
X791210Y872490D02*
Y882650D01*
X801370D01*
Y872490D01*
X791210D01*
Y847090D02*
Y857250D01*
X801370D01*
Y847090D01*
X791210D01*
X661000Y883330D02*
X663540Y885870D01*
X666080D01*
X663540Y888410D01*
X666080Y890950D01*
X663540D01*
X661000Y893490D01*
X658460Y890950D01*
X655920D01*
X658460Y888410D01*
X655920Y885870D01*
X658460D01*
X661000Y883330D01*
Y828630D02*
X663540Y831170D01*
X666080D01*
X663540Y833710D01*
X666080Y836250D01*
X663540D01*
X661000Y838790D01*
X658460Y836250D01*
X655920D01*
X658460Y833710D01*
X655920Y831170D01*
X658460D01*
X661000Y828630D01*
X591000D02*
X593540Y831170D01*
X596080D01*
X593540Y833710D01*
X596080Y836250D01*
X593540D01*
X591000Y838790D01*
X588460Y836250D01*
X585920D01*
X588460Y833710D01*
X585920Y831170D01*
X588460D01*
X591000Y828630D01*
Y883330D02*
X593540Y885870D01*
X596080D01*
X593540Y888410D01*
X596080Y890950D01*
X593540D01*
X591000Y893490D01*
X588460Y890950D01*
X585920D01*
X588460Y888410D01*
X585920Y885870D01*
X588460D01*
X591000Y883330D01*
X598300Y855980D02*
X593220Y866140D01*
X603380D01*
X598300Y855980D01*
X618300D02*
X613220Y866140D01*
X623380D01*
X618300Y855980D01*
X638300D02*
X633220Y866140D01*
X643380D01*
X638300Y855980D01*
X658300D02*
X653220Y866140D01*
X663380D01*
X658300Y855980D01*
X707390Y971550D02*
Y981710D01*
X717550D01*
Y971550D01*
X707390D01*
Y946150D02*
Y956310D01*
X717550D01*
Y946150D01*
X707390D01*
X579120Y1313180D02*
X581660Y1318260D01*
X579120Y1323340D01*
X584200Y1320800D01*
X589280Y1323340D01*
X586740Y1318260D01*
X589280Y1313180D01*
X584200Y1315720D01*
X579120Y1313180D01*
Y1135380D02*
X581660Y1140460D01*
X579120Y1145540D01*
X584200Y1143000D01*
X589280Y1145540D01*
X586740Y1140460D01*
X589280Y1135380D01*
X584200Y1137920D01*
X579120Y1135380D01*
X640080Y1313180D02*
X642620Y1318260D01*
X640080Y1323340D01*
X645160Y1320800D01*
X650240Y1323340D01*
X647700Y1318260D01*
X650240Y1313180D01*
X645160Y1315720D01*
X640080Y1313180D01*
X817880D02*
X820420Y1318260D01*
X817880Y1323340D01*
X822960Y1320800D01*
X828040Y1323340D01*
X825500Y1318260D01*
X828040Y1313180D01*
X822960Y1315720D01*
X817880Y1313180D01*
X1077777Y1054252D02*
Y1051712D01*
X1082857D01*
Y1054252D01*
X1085397D01*
Y1059332D01*
X1082857D01*
Y1061872D01*
X1077777D01*
Y1059332D01*
X1075237D01*
Y1054252D01*
X1077777D01*
X1059942Y1090422D02*
Y1087882D01*
X1065022D01*
Y1090422D01*
X1067562D01*
Y1095502D01*
X1065022D01*
Y1098042D01*
X1059942D01*
Y1095502D01*
X1057402D01*
Y1090422D01*
X1059942D01*
X1153160Y1089660D02*
Y1087120D01*
X1158240D01*
Y1089660D01*
X1160780D01*
Y1094740D01*
X1158240D01*
Y1097280D01*
X1153160D01*
Y1094740D01*
X1150620D01*
Y1089660D01*
X1153160D01*
X1567180Y1116330D02*
Y1113790D01*
X1572260D01*
Y1116330D01*
X1574800D01*
Y1121410D01*
X1572260D01*
Y1123950D01*
X1567180D01*
Y1121410D01*
X1564640D01*
Y1116330D01*
X1567180D01*
Y1019810D02*
Y1017270D01*
X1572260D01*
Y1019810D01*
X1574800D01*
Y1024890D01*
X1572260D01*
Y1027430D01*
X1567180D01*
Y1024890D01*
X1564640D01*
Y1019810D01*
X1567180D01*
X728980Y875030D02*
Y872490D01*
X734060D01*
Y875030D01*
X736600D01*
Y880110D01*
X734060D01*
Y882650D01*
X728980D01*
Y880110D01*
X726440D01*
Y875030D01*
X728980D01*
X1363472Y1309878D02*
Y1307338D01*
X1368552D01*
Y1309878D01*
X1371092D01*
Y1314958D01*
X1368552D01*
Y1317498D01*
X1363472D01*
Y1314958D01*
X1360932D01*
Y1309878D01*
X1363472D01*
X1199642Y1141984D02*
Y1139444D01*
X1204722D01*
Y1141984D01*
X1207262D01*
Y1147064D01*
X1204722D01*
Y1149604D01*
X1199642D01*
Y1147064D01*
X1197102D01*
Y1141984D01*
X1199642D01*
X754380Y806450D02*
Y803910D01*
X759460D01*
Y806450D01*
X762000D01*
Y811530D01*
X759460D01*
Y814070D01*
X754380D01*
Y811530D01*
X751840D01*
Y806450D01*
X754380D01*
X1078230Y1148080D02*
X1080770D01*
X1083310Y1150620D01*
X1085850Y1148080D01*
X1088390D01*
Y1150620D01*
X1085850Y1153160D01*
X1088390Y1155700D01*
Y1158240D01*
X1085850D01*
X1083310Y1155700D01*
X1080770Y1158240D01*
X1078230D01*
Y1155700D01*
X1080770Y1153160D01*
X1078230Y1150620D01*
Y1148080D01*
X1173480Y1144270D02*
Y1141730D01*
X1178560D01*
Y1144270D01*
X1181100D01*
Y1149350D01*
X1178560D01*
Y1151890D01*
X1173480D01*
Y1149350D01*
X1170940D01*
Y1144270D01*
X1173480D01*
X1122680Y1146810D02*
Y1144270D01*
X1127760D01*
Y1146810D01*
X1130300D01*
Y1151890D01*
X1127760D01*
Y1154430D01*
X1122680D01*
Y1151890D01*
X1120140D01*
Y1146810D01*
X1122680D01*
X1137920Y1139190D02*
Y1136650D01*
X1143000D01*
Y1139190D01*
X1145540D01*
Y1144270D01*
X1143000D01*
Y1146810D01*
X1137920D01*
Y1144270D01*
X1135380D01*
Y1139190D01*
X1137920D01*
X1148080Y1148080D02*
X1150620D01*
X1153160Y1150620D01*
X1155700Y1148080D01*
X1158240D01*
Y1150620D01*
X1155700Y1153160D01*
X1158240Y1155700D01*
Y1158240D01*
X1155700D01*
X1153160Y1155700D01*
X1150620Y1158240D01*
X1148080D01*
Y1155700D01*
X1150620Y1153160D01*
X1148080Y1150620D01*
Y1148080D01*
X1108710Y1160780D02*
X1111250D01*
X1113790Y1163320D01*
X1116330Y1160780D01*
X1118870D01*
Y1163320D01*
X1116330Y1165860D01*
X1118870Y1168400D01*
Y1170940D01*
X1116330D01*
X1113790Y1168400D01*
X1111250Y1170940D01*
X1108710D01*
Y1168400D01*
X1111250Y1165860D01*
X1108710Y1163320D01*
Y1160780D01*
X1201420Y1066546D02*
Y1064006D01*
X1206500D01*
Y1066546D01*
X1209040D01*
Y1071626D01*
X1206500D01*
Y1074166D01*
X1201420D01*
Y1071626D01*
X1198880D01*
Y1066546D01*
X1201420D01*
X1221740Y1092200D02*
Y1089660D01*
X1226820D01*
Y1092200D01*
X1229360D01*
Y1097280D01*
X1226820D01*
Y1099820D01*
X1221740D01*
Y1097280D01*
X1219200D01*
Y1092200D01*
X1221740D01*
X1201420Y1084370D02*
X1203960D01*
X1206500Y1086910D01*
X1209040Y1084370D01*
X1211580D01*
Y1086910D01*
X1209040Y1089450D01*
X1211580Y1091990D01*
Y1094530D01*
X1209040D01*
X1206500Y1091990D01*
X1203960Y1094530D01*
X1201420D01*
Y1091990D01*
X1203960Y1089450D01*
X1201420Y1086910D01*
Y1084370D01*
X1309370Y1104900D02*
X1311910D01*
X1314450Y1107440D01*
X1316990Y1104900D01*
X1319530D01*
Y1107440D01*
X1316990Y1109980D01*
X1319530Y1112520D01*
Y1115060D01*
X1316990D01*
X1314450Y1112520D01*
X1311910Y1115060D01*
X1309370D01*
Y1112520D01*
X1311910Y1109980D01*
X1309370Y1107440D01*
Y1104900D01*
X811530Y944880D02*
X814070D01*
X816610Y947420D01*
X819150Y944880D01*
X821690D01*
Y947420D01*
X819150Y949960D01*
X821690Y952500D01*
Y955040D01*
X819150D01*
X816610Y952500D01*
X814070Y955040D01*
X811530D01*
Y952500D01*
X814070Y949960D01*
X811530Y947420D01*
Y944880D01*
X885190Y941070D02*
X887730D01*
X890270Y943610D01*
X892810Y941070D01*
X895350D01*
Y943610D01*
X892810Y946150D01*
X895350Y948690D01*
Y951230D01*
X892810D01*
X890270Y948690D01*
X887730Y951230D01*
X885190D01*
Y948690D01*
X887730Y946150D01*
X885190Y943610D01*
Y941070D01*
X1139620Y1103200D02*
X1144700Y1108280D01*
X1149780Y1103200D01*
X1144700Y1098120D01*
X1139620Y1103200D01*
X1150620D02*
X1155700Y1108280D01*
X1160780Y1103200D01*
X1155700Y1098120D01*
X1150620Y1103200D01*
X1161620D02*
X1166700Y1108280D01*
X1171780Y1103200D01*
X1166700Y1098120D01*
X1161620Y1103200D01*
X1139620Y1092200D02*
X1144700Y1097280D01*
X1149780Y1092200D01*
X1144700Y1087120D01*
X1139620Y1092200D01*
X1150620D02*
X1155700Y1097280D01*
X1160780Y1092200D01*
X1155700Y1087120D01*
X1150620Y1092200D01*
X1161620D02*
X1166700Y1097280D01*
X1171780Y1092200D01*
X1166700Y1087120D01*
X1161620Y1092200D01*
X1139620Y1081200D02*
X1144700Y1086280D01*
X1149780Y1081200D01*
X1144700Y1076120D01*
X1139620Y1081200D01*
X1150620D02*
X1155700Y1086280D01*
X1160780Y1081200D01*
X1155700Y1076120D01*
X1150620Y1081200D01*
X1161620D02*
X1166700Y1086280D01*
X1171780Y1081200D01*
X1166700Y1076120D01*
X1161620Y1081200D01*
D62*
X1235710Y880110D02*
G03*
X1235710Y880110I-5080J0D01*
G01*
X1159510D02*
G03*
X1159510Y880110I-5080J0D01*
G01*
X1661160Y1107440D02*
G03*
X1661160Y1107440I-5080J0D01*
G01*
Y1031240D02*
G03*
X1661160Y1031240I-5080J0D01*
G01*
X1657350Y1263650D02*
G03*
X1657350Y1263650I-5080J0D01*
G01*
Y1187450D02*
G03*
X1657350Y1187450I-5080J0D01*
G01*
X755650Y1140460D02*
G03*
X755650Y1140460I-5080J0D01*
G01*
Y1216660D02*
G03*
X755650Y1216660I-5080J0D01*
G01*
X737870Y1046480D02*
G03*
X737870Y1046480I-5080J0D01*
G01*
X636270D02*
G03*
X636270Y1046480I-5080J0D01*
G01*
X590550Y1080770D02*
G03*
X590550Y1080770I-5080J0D01*
G01*
Y979170D02*
G03*
X590550Y979170I-5080J0D01*
G01*
M02*
