%FSLAX44Y44*%
%MOMM*%
G71*
G01*
G75*
G04 Layer_Color=16711935*
%ADD10R,2.4000X3.3000*%
%ADD11R,1.3000X0.5500*%
%ADD12O,0.7500X0.3000*%
%ADD13O,0.3000X0.7500*%
%ADD14R,3.6000X3.6000*%
%ADD15C,0.6530*%
%ADD16C,0.3000*%
%ADD17C,0.2540*%
%ADD18C,1.3000*%
%ADD19C,1.4000*%
%ADD20R,1.5000X1.5000*%
%ADD21C,1.5000*%
%ADD22R,1.5000X1.5000*%
%ADD23C,1.2000*%
%ADD24O,2.5000X1.4000*%
G04:AMPARAMS|DCode=25|XSize=1.52mm|YSize=1.52mm|CornerRadius=0.38mm|HoleSize=0mm|Usage=FLASHONLY|Rotation=270.000|XOffset=0mm|YOffset=0mm|HoleType=Round|Shape=RoundedRectangle|*
%AMROUNDEDRECTD25*
21,1,1.5200,0.7600,0,0,270.0*
21,1,0.7600,1.5200,0,0,270.0*
1,1,0.7600,-0.3800,-0.3800*
1,1,0.7600,-0.3800,0.3800*
1,1,0.7600,0.3800,0.3800*
1,1,0.7600,0.3800,-0.3800*
%
%ADD25ROUNDEDRECTD25*%
%ADD26C,1.5200*%
%ADD27C,1.6500*%
%ADD28C,1.1000*%
%ADD29C,1.2700*%
%ADD30C,0.5000*%
%ADD31C,1.0160*%
%ADD32C,1.7160*%
%ADD33C,1.8660*%
%ADD34C,1.9160*%
%ADD35C,1.7160*%
%ADD36O,2.5160X1.7660*%
%ADD37C,2.0160*%
%ADD38C,0.2000*%
%ADD39C,0.2500*%
%ADD40C,0.2032*%
%ADD41R,2.6032X3.5032*%
%ADD42R,1.5032X0.7532*%
%ADD43O,0.9532X0.5032*%
%ADD44O,0.5032X0.9532*%
%ADD45R,3.8032X3.8032*%
%ADD46C,1.5032*%
%ADD47C,1.6032*%
%ADD48R,1.7032X1.7032*%
%ADD49C,1.7032*%
%ADD50R,1.7032X1.7032*%
%ADD51C,1.4032*%
%ADD52O,2.7032X1.6032*%
G04:AMPARAMS|DCode=53|XSize=1.7232mm|YSize=1.7232mm|CornerRadius=0.4816mm|HoleSize=0mm|Usage=FLASHONLY|Rotation=270.000|XOffset=0mm|YOffset=0mm|HoleType=Round|Shape=RoundedRectangle|*
%AMROUNDEDRECTD53*
21,1,1.7232,0.7600,0,0,270.0*
21,1,0.7600,1.7232,0,0,270.0*
1,1,0.9632,-0.3800,-0.3800*
1,1,0.9632,-0.3800,0.3800*
1,1,0.9632,0.3800,0.3800*
1,1,0.9632,0.3800,-0.3800*
%
%ADD53ROUNDEDRECTD53*%
%ADD54C,1.7232*%
%ADD55C,1.8532*%
%ADD56C,1.3032*%
%ADD57C,1.4732*%
%ADD58C,0.7032*%
D46*
X1094480Y1223010D02*
D03*
X1125480D02*
D03*
X1084840Y972820D02*
D03*
X1053840D02*
D03*
D47*
X1230630Y880110D02*
D03*
X1154430D02*
D03*
X1656080Y1107440D02*
D03*
Y1031240D02*
D03*
X1652270Y1263650D02*
D03*
Y1187450D02*
D03*
X750570Y1140460D02*
D03*
Y1216660D02*
D03*
X732790Y1046480D02*
D03*
X631190D02*
D03*
X585470Y1080770D02*
D03*
Y979170D02*
D03*
D48*
X1527810Y1303020D02*
D03*
X858520Y1275080D02*
D03*
D49*
X1527810Y1277620D02*
D03*
Y1252220D02*
D03*
Y1226820D02*
D03*
Y1201420D02*
D03*
Y1176020D02*
D03*
Y1150620D02*
D03*
Y1125220D02*
D03*
Y1099820D02*
D03*
Y1074420D02*
D03*
Y1049020D02*
D03*
Y1023620D02*
D03*
X858520Y1249680D02*
D03*
Y1224280D02*
D03*
Y1198880D02*
D03*
Y1173480D02*
D03*
Y1148080D02*
D03*
Y1122680D02*
D03*
Y1097280D02*
D03*
Y1071880D02*
D03*
Y1046480D02*
D03*
Y1021080D02*
D03*
Y995680D02*
D03*
X1088390Y1324610D02*
D03*
X1113790Y1299210D02*
D03*
Y1324610D02*
D03*
X1139190Y1299210D02*
D03*
Y1324610D02*
D03*
X1164590Y1299210D02*
D03*
Y1324610D02*
D03*
X1189990Y1299210D02*
D03*
Y1324610D02*
D03*
D50*
X1088390Y1299210D02*
D03*
D51*
X1270000Y947420D02*
D03*
Y972820D02*
D03*
X1300480Y1197610D02*
D03*
Y1223010D02*
D03*
X1217930Y947420D02*
D03*
Y972820D02*
D03*
X1248410Y1197610D02*
D03*
Y1223010D02*
D03*
X1012190Y1103630D02*
D03*
Y1078230D02*
D03*
X1356360Y1103630D02*
D03*
Y1078230D02*
D03*
X1280160Y1104900D02*
D03*
Y1079500D02*
D03*
X946150Y854710D02*
D03*
Y880110D02*
D03*
X1012190Y972820D02*
D03*
Y947420D02*
D03*
X1127760Y972820D02*
D03*
Y947420D02*
D03*
X1060450Y1221740D02*
D03*
Y1196340D02*
D03*
X1160780Y1223010D02*
D03*
Y1197610D02*
D03*
X1329690Y947420D02*
D03*
Y972820D02*
D03*
X796290Y877570D02*
D03*
Y852170D02*
D03*
X712470Y976630D02*
D03*
Y951230D02*
D03*
D52*
X661000Y888410D02*
D03*
Y833710D02*
D03*
X591000D02*
D03*
Y888410D02*
D03*
D53*
X598300Y861060D02*
D03*
D54*
X618300D02*
D03*
X638300D02*
D03*
X658300D02*
D03*
D55*
X584200Y1318260D02*
D03*
Y1140460D02*
D03*
X645160Y1318260D02*
D03*
X822960D02*
D03*
D56*
X1080317Y1056792D02*
D03*
X1062482Y1092962D02*
D03*
X1155700Y1092200D02*
D03*
X1569720Y1118870D02*
D03*
Y1022350D02*
D03*
X731520Y877570D02*
D03*
X1366012Y1312418D02*
D03*
X1202182Y1144524D02*
D03*
X756920Y808990D02*
D03*
X1176020Y1146810D02*
D03*
X1125220Y1149350D02*
D03*
X1140460Y1141730D02*
D03*
X1203960Y1069086D02*
D03*
X1224280Y1094740D02*
D03*
D57*
X1083310Y1153160D02*
D03*
X1153160D02*
D03*
X1113790Y1165860D02*
D03*
X1206500Y1089450D02*
D03*
X1314450Y1109980D02*
D03*
X816610Y949960D02*
D03*
X890270Y946150D02*
D03*
D58*
X1144700Y1103200D02*
D03*
X1155700D02*
D03*
X1166700D02*
D03*
X1144700Y1092200D02*
D03*
X1155700D02*
D03*
X1166700D02*
D03*
X1144700Y1081200D02*
D03*
X1155700D02*
D03*
X1166700D02*
D03*
M02*
