%FSLAX44Y44*%
%MOMM*%
G71*
G01*
G75*
%ADD10R,2.4000X3.3000*%
%ADD11R,1.3000X0.5500*%
%ADD12O,0.7500X0.3000*%
%ADD13O,0.3000X0.7500*%
%ADD14R,3.6000X3.6000*%
%ADD15C,0.6530*%
%ADD16C,0.3000*%
%ADD17C,0.2540*%
%ADD18C,1.3000*%
%ADD19C,1.4000*%
%ADD20R,1.5000X1.5000*%
%ADD21C,1.5000*%
%ADD22R,1.5000X1.5000*%
%ADD23C,1.2000*%
%ADD24O,2.5000X1.4000*%
G04:AMPARAMS|DCode=25|XSize=1.52mm|YSize=1.52mm|CornerRadius=0.38mm|HoleSize=0mm|Usage=FLASHONLY|Rotation=270.000|XOffset=0mm|YOffset=0mm|HoleType=Round|Shape=RoundedRectangle|*
%AMROUNDEDRECTD25*
21,1,1.5200,0.7600,0,0,270.0*
21,1,0.7600,1.5200,0,0,270.0*
1,1,0.7600,-0.3800,-0.3800*
1,1,0.7600,-0.3800,0.3800*
1,1,0.7600,0.3800,0.3800*
1,1,0.7600,0.3800,-0.3800*
%
%ADD25ROUNDEDRECTD25*%
%ADD26C,1.5200*%
%ADD27C,1.6500*%
%ADD28C,1.1000*%
%ADD29C,1.2700*%
%ADD30C,0.5000*%
%ADD31C,1.0160*%
%ADD32C,1.7160*%
%ADD33C,1.8660*%
%ADD34C,1.9160*%
%ADD35C,1.7160*%
%ADD36O,2.5160X1.7660*%
%ADD37C,2.0160*%
%ADD38C,0.2000*%
%ADD39C,0.2500*%
%ADD40C,0.2032*%
%ADD41R,2.6032X3.5032*%
%ADD42R,1.5032X0.7532*%
%ADD43O,0.9532X0.5032*%
%ADD44O,0.5032X0.9532*%
%ADD45R,3.8032X3.8032*%
%ADD46C,1.5032*%
%ADD47C,1.6032*%
%ADD48R,1.7032X1.7032*%
%ADD49C,1.7032*%
%ADD50R,1.7032X1.7032*%
%ADD51C,1.4032*%
%ADD52O,2.7032X1.6032*%
G04:AMPARAMS|DCode=53|XSize=1.7232mm|YSize=1.7232mm|CornerRadius=0.4816mm|HoleSize=0mm|Usage=FLASHONLY|Rotation=270.000|XOffset=0mm|YOffset=0mm|HoleType=Round|Shape=RoundedRectangle|*
%AMROUNDEDRECTD53*
21,1,1.7232,0.7600,0,0,270.0*
21,1,0.7600,1.7232,0,0,270.0*
1,1,0.9632,-0.3800,-0.3800*
1,1,0.9632,-0.3800,0.3800*
1,1,0.9632,0.3800,0.3800*
1,1,0.9632,0.3800,-0.3800*
%
%ADD53ROUNDEDRECTD53*%
%ADD54C,1.7232*%
%ADD55C,1.8532*%
%ADD56C,1.3032*%
%ADD57C,1.4732*%
%ADD58C,0.7032*%
%ADD59C,0.1000*%
%ADD60C,0.0500*%
%ADD61C,0.1270*%
%ADD62C,0.1693*%
D61*
X1090980Y1223010D02*
X1097980D01*
X1094480Y1219510D02*
Y1226510D01*
X1121980Y1223010D02*
X1128980D01*
X1125480Y1219510D02*
Y1226510D01*
X1081340Y972820D02*
X1088340D01*
X1084840Y969320D02*
Y976320D01*
X1050340Y972820D02*
X1057340D01*
X1053840Y969320D02*
Y976320D01*
X1226380Y880110D02*
X1234880D01*
X1230630Y875860D02*
Y884360D01*
X1150180Y880110D02*
X1158680D01*
X1154430Y875860D02*
Y884360D01*
X1651830Y1107440D02*
X1660330D01*
X1656080Y1103190D02*
Y1111690D01*
X1651830Y1031240D02*
X1660330D01*
X1656080Y1026990D02*
Y1035490D01*
X1648020Y1263650D02*
X1656520D01*
X1652270Y1259400D02*
Y1267900D01*
X1648020Y1187450D02*
X1656520D01*
X1652270Y1183200D02*
Y1191700D01*
X1523310Y1303020D02*
X1532310D01*
X1527810Y1298520D02*
Y1307520D01*
X1523310Y1277620D02*
X1532310D01*
X1527810Y1273120D02*
Y1282120D01*
X1523310Y1252220D02*
X1532310D01*
X1527810Y1247720D02*
Y1256720D01*
X1523310Y1226820D02*
X1532310D01*
X1527810Y1222320D02*
Y1231320D01*
X1523310Y1201420D02*
X1532310D01*
X1527810Y1196920D02*
Y1205920D01*
X1523310Y1176020D02*
X1532310D01*
X1527810Y1171520D02*
Y1180520D01*
X1523310Y1150620D02*
X1532310D01*
X1527810Y1146120D02*
Y1155120D01*
X1523310Y1125220D02*
X1532310D01*
X1527810Y1120720D02*
Y1129720D01*
X1523310Y1099820D02*
X1532310D01*
X1527810Y1095320D02*
Y1104320D01*
X1523310Y1074420D02*
X1532310D01*
X1527810Y1069920D02*
Y1078920D01*
X1523310Y1049020D02*
X1532310D01*
X1527810Y1044520D02*
Y1053520D01*
X1523310Y1023620D02*
X1532310D01*
X1527810Y1019120D02*
Y1028120D01*
X854020Y1275080D02*
X863020D01*
X858520Y1270580D02*
Y1279580D01*
X854020Y1249680D02*
X863020D01*
X858520Y1245180D02*
Y1254180D01*
X854020Y1224280D02*
X863020D01*
X858520Y1219780D02*
Y1228780D01*
X854020Y1198880D02*
X863020D01*
X858520Y1194380D02*
Y1203380D01*
X854020Y1173480D02*
X863020D01*
X858520Y1168980D02*
Y1177980D01*
X854020Y1148080D02*
X863020D01*
X858520Y1143580D02*
Y1152580D01*
X854020Y1122680D02*
X863020D01*
X858520Y1118180D02*
Y1127180D01*
X854020Y1097280D02*
X863020D01*
X858520Y1092780D02*
Y1101780D01*
X854020Y1071880D02*
X863020D01*
X858520Y1067380D02*
Y1076380D01*
X854020Y1046480D02*
X863020D01*
X858520Y1041980D02*
Y1050980D01*
X854020Y1021080D02*
X863020D01*
X858520Y1016580D02*
Y1025580D01*
X854020Y995680D02*
X863020D01*
X858520Y991180D02*
Y1000180D01*
X746320Y1140460D02*
X754820D01*
X750570Y1136210D02*
Y1144710D01*
X746320Y1216660D02*
X754820D01*
X750570Y1212410D02*
Y1220910D01*
X1083890Y1299210D02*
X1092890D01*
X1088390Y1294710D02*
Y1303710D01*
X1083890Y1324610D02*
X1092890D01*
X1088390Y1320110D02*
Y1329110D01*
X1109290Y1299210D02*
X1118290D01*
X1113790Y1294710D02*
Y1303710D01*
X1109290Y1324610D02*
X1118290D01*
X1113790Y1320110D02*
Y1329110D01*
X1134690Y1299210D02*
X1143690D01*
X1139190Y1294710D02*
Y1303710D01*
X1134690Y1324610D02*
X1143690D01*
X1139190Y1320110D02*
Y1329110D01*
X1160090Y1299210D02*
X1169090D01*
X1164590Y1294710D02*
Y1303710D01*
X1160090Y1324610D02*
X1169090D01*
X1164590Y1320110D02*
Y1329110D01*
X1185490Y1299210D02*
X1194490D01*
X1189990Y1294710D02*
Y1303710D01*
X1185490Y1324610D02*
X1194490D01*
X1189990Y1320110D02*
Y1329110D01*
X728540Y1046480D02*
X737040D01*
X732790Y1042230D02*
Y1050730D01*
X626940Y1046480D02*
X635440D01*
X631190Y1042230D02*
Y1050730D01*
X581220Y1080770D02*
X589720D01*
X585470Y1076520D02*
Y1085020D01*
X581220Y979170D02*
X589720D01*
X585470Y974920D02*
Y983420D01*
X1266500Y947420D02*
X1273500D01*
X1270000Y943920D02*
Y950920D01*
X1266500Y972820D02*
X1273500D01*
X1270000Y969320D02*
Y976320D01*
X1296980Y1197610D02*
X1303980D01*
X1300480Y1194110D02*
Y1201110D01*
X1296980Y1223010D02*
X1303980D01*
X1300480Y1219510D02*
Y1226510D01*
X1214430Y947420D02*
X1221430D01*
X1217930Y943920D02*
Y950920D01*
X1214430Y972820D02*
X1221430D01*
X1217930Y969320D02*
Y976320D01*
X1244910Y1197610D02*
X1251910D01*
X1248410Y1194110D02*
Y1201110D01*
X1244910Y1223010D02*
X1251910D01*
X1248410Y1219510D02*
Y1226510D01*
X1008690Y1103630D02*
X1015690D01*
X1012190Y1100130D02*
Y1107130D01*
X1008690Y1078230D02*
X1015690D01*
X1012190Y1074730D02*
Y1081730D01*
X1352860Y1103630D02*
X1359860D01*
X1356360Y1100130D02*
Y1107130D01*
X1352860Y1078230D02*
X1359860D01*
X1356360Y1074730D02*
Y1081730D01*
X1276660Y1104900D02*
X1283660D01*
X1280160Y1101400D02*
Y1108400D01*
X1276660Y1079500D02*
X1283660D01*
X1280160Y1076000D02*
Y1083000D01*
X942650Y854710D02*
X949650D01*
X946150Y851210D02*
Y858210D01*
X942650Y880110D02*
X949650D01*
X946150Y876610D02*
Y883610D01*
X1008690Y972820D02*
X1015690D01*
X1012190Y969320D02*
Y976320D01*
X1008690Y947420D02*
X1015690D01*
X1012190Y943920D02*
Y950920D01*
X1124260Y972820D02*
X1131260D01*
X1127760Y969320D02*
Y976320D01*
X1124260Y947420D02*
X1131260D01*
X1127760Y943920D02*
Y950920D01*
X1056950Y1221740D02*
X1063950D01*
X1060450Y1218240D02*
Y1225240D01*
X1056950Y1196340D02*
X1063950D01*
X1060450Y1192840D02*
Y1199840D01*
X1157280Y1223010D02*
X1164280D01*
X1160780Y1219510D02*
Y1226510D01*
X1157280Y1197610D02*
X1164280D01*
X1160780Y1194110D02*
Y1201110D01*
X1326190Y947420D02*
X1333190D01*
X1329690Y943920D02*
Y950920D01*
X1326190Y972820D02*
X1333190D01*
X1329690Y969320D02*
Y976320D01*
X792790Y877570D02*
X799790D01*
X796290Y874070D02*
Y881070D01*
X792790Y852170D02*
X799790D01*
X796290Y848670D02*
Y855670D01*
X657250Y888410D02*
X664750D01*
X661000Y884660D02*
Y892160D01*
X657250Y833710D02*
X664750D01*
X661000Y829960D02*
Y837460D01*
X587250Y833710D02*
X594750D01*
X591000Y829960D02*
Y837460D01*
X587250Y888410D02*
X594750D01*
X591000Y884660D02*
Y892160D01*
X593800Y861060D02*
X602800D01*
X598300Y856560D02*
Y865560D01*
X613800Y861060D02*
X622800D01*
X618300Y856560D02*
Y865560D01*
X633800Y861060D02*
X642800D01*
X638300Y856560D02*
Y865560D01*
X653800Y861060D02*
X662800D01*
X658300Y856560D02*
Y865560D01*
X708970Y976630D02*
X715970D01*
X712470Y973130D02*
Y980130D01*
X708970Y951230D02*
X715970D01*
X712470Y947730D02*
Y954730D01*
X579200Y1318260D02*
X589200D01*
X584200Y1313260D02*
Y1323260D01*
X579200Y1140460D02*
X589200D01*
X584200Y1135460D02*
Y1145460D01*
X640160Y1318260D02*
X650160D01*
X645160Y1313260D02*
Y1323260D01*
X817960Y1318260D02*
X827960D01*
X822960Y1313260D02*
Y1323260D01*
X1078817Y1056792D02*
X1081817D01*
X1080317Y1055292D02*
Y1058292D01*
X1060982Y1092962D02*
X1063982D01*
X1062482Y1091462D02*
Y1094462D01*
X1154200Y1092200D02*
X1157200D01*
X1155700Y1090700D02*
Y1093700D01*
X1568220Y1118870D02*
X1571220D01*
X1569720Y1117370D02*
Y1120370D01*
X1568220Y1022350D02*
X1571220D01*
X1569720Y1020850D02*
Y1023850D01*
X730020Y877570D02*
X733020D01*
X731520Y876070D02*
Y879070D01*
X1364512Y1312418D02*
X1367512D01*
X1366012Y1310918D02*
Y1313918D01*
X1200682Y1144524D02*
X1203682D01*
X1202182Y1143024D02*
Y1146024D01*
X755420Y808990D02*
X758420D01*
X756920Y807490D02*
Y810490D01*
X1079754Y1153160D02*
X1086866D01*
X1083310Y1149604D02*
Y1156716D01*
X1174520Y1146810D02*
X1177520D01*
X1176020Y1145310D02*
Y1148310D01*
X1123720Y1149350D02*
X1126720D01*
X1125220Y1147850D02*
Y1150850D01*
X1138960Y1141730D02*
X1141960D01*
X1140460Y1140230D02*
Y1143230D01*
X1149604Y1153160D02*
X1156716D01*
X1153160Y1149604D02*
Y1156716D01*
X1110234Y1165860D02*
X1117346D01*
X1113790Y1162304D02*
Y1169416D01*
X1202460Y1069086D02*
X1205460D01*
X1203960Y1067586D02*
Y1070586D01*
X1222780Y1094740D02*
X1225780D01*
X1224280Y1093240D02*
Y1096240D01*
X1202944Y1089450D02*
X1210056D01*
X1206500Y1085894D02*
Y1093006D01*
X1310894Y1109980D02*
X1318006D01*
X1314450Y1106424D02*
Y1113536D01*
X813054Y949960D02*
X820166D01*
X816610Y946404D02*
Y953516D01*
X886714Y946150D02*
X893826D01*
X890270Y942594D02*
Y949706D01*
X1143700Y1103200D02*
X1145700D01*
X1144700Y1102200D02*
Y1104200D01*
X1154700Y1103200D02*
X1156700D01*
X1155700Y1102200D02*
Y1104200D01*
X1165700Y1103200D02*
X1167700D01*
X1166700Y1102200D02*
Y1104200D01*
X1143700Y1092200D02*
X1145700D01*
X1144700Y1091200D02*
Y1093200D01*
X1154700Y1092200D02*
X1156700D01*
X1155700Y1091200D02*
Y1093200D01*
X1165700Y1092200D02*
X1167700D01*
X1166700Y1091200D02*
Y1093200D01*
X1143700Y1081200D02*
X1145700D01*
X1144700Y1080200D02*
Y1082200D01*
X1154700Y1081200D02*
X1156700D01*
X1155700Y1080200D02*
Y1082200D01*
X1165700Y1081200D02*
X1167700D01*
X1166700Y1080200D02*
Y1082200D01*
M02*
