%FSLAX44Y44*%
%MOMM*%
G71*
G01*
G75*
G04 Layer_Physical_Order=3*
G04 Layer_Color=16711680*
%ADD10R,2.4000X3.3000*%
%ADD11R,1.3000X0.5500*%
%ADD12O,0.7500X0.3000*%
%ADD13O,0.3000X0.7500*%
%ADD14R,3.6000X3.6000*%
%ADD15C,0.6530*%
%ADD16C,0.3000*%
%ADD17C,0.2540*%
%ADD18C,1.3000*%
%ADD19C,1.4000*%
%ADD20R,1.5000X1.5000*%
%ADD21C,1.5000*%
%ADD22R,1.5000X1.5000*%
%ADD23C,1.2000*%
%ADD24O,2.5000X1.4000*%
G04:AMPARAMS|DCode=25|XSize=1.52mm|YSize=1.52mm|CornerRadius=0.38mm|HoleSize=0mm|Usage=FLASHONLY|Rotation=270.000|XOffset=0mm|YOffset=0mm|HoleType=Round|Shape=RoundedRectangle|*
%AMROUNDEDRECTD25*
21,1,1.5200,0.7600,0,0,270.0*
21,1,0.7600,1.5200,0,0,270.0*
1,1,0.7600,-0.3800,-0.3800*
1,1,0.7600,-0.3800,0.3800*
1,1,0.7600,0.3800,0.3800*
1,1,0.7600,0.3800,-0.3800*
%
%ADD25ROUNDEDRECTD25*%
%ADD26C,1.5200*%
%ADD27C,1.6500*%
%ADD28C,1.1000*%
%ADD29C,1.2700*%
%ADD30C,0.5000*%
%ADD31C,1.0160*%
%ADD32C,1.7160*%
%ADD33C,1.8660*%
%ADD34C,1.9160*%
%ADD35C,1.7160*%
%ADD36O,2.5160X1.7660*%
%ADD37C,2.0160*%
D15*
X1012190Y947420D02*
X1127760D01*
X584200Y1318260D02*
X645160D01*
X1579626Y1260094D02*
Y1329182D01*
X1566418Y1342390D02*
X1579626Y1329182D01*
X1445260Y1342390D02*
X1566418D01*
X598300Y861060D02*
X612270Y875030D01*
X674370D01*
X676910Y877570D01*
X1473200Y1078230D02*
X1527810Y1023620D01*
X1230884Y1180084D02*
X1248410Y1197610D01*
X918210Y852170D02*
X946150Y880110D01*
X1176020Y1285240D02*
X1189990Y1299210D01*
X1153160Y1285240D02*
X1176020D01*
X1060450Y1196340D02*
X1110742D01*
X667190Y852170D02*
X796290D01*
X1127760Y947420D02*
X1153160Y972820D01*
X1160780Y1197610D02*
X1186180Y1223010D01*
X1248410D01*
X1579626Y1260094D02*
X1652270Y1187450D01*
X1300480Y1197610D02*
X1445260Y1342390D01*
X1248410Y1197610D02*
X1300480D01*
X1139190Y1299210D02*
X1153160Y1285240D01*
X1113790Y1299210D02*
X1139190D01*
X1110742Y1196340D02*
X1112012Y1197610D01*
X1160780D01*
X1248410Y1223010D02*
X1300480D01*
X1356360Y1078230D02*
X1473200D01*
X858520Y1021080D02*
X955040D01*
X1012190Y1078230D01*
X1270000Y972820D02*
X1329690D01*
X1217930D02*
X1270000D01*
X1153160D02*
X1217930D01*
X1012190Y901700D02*
Y947420D01*
X990600Y880110D02*
X1012190Y901700D01*
X946150Y880110D02*
X990600D01*
X796290Y852170D02*
X918210D01*
X658300Y861060D02*
X667190Y852170D01*
X731520Y877570D02*
X796290D01*
X676910D02*
X731520D01*
X1569720Y1118870D02*
Y1261110D01*
X1527810Y1303020D02*
X1569720Y1261110D01*
X1355090Y807720D02*
X1569720Y1022350D01*
X1353820Y808990D02*
X1355090Y807720D01*
X756920Y808990D02*
X1353820D01*
X1072515Y1163955D02*
X1083310Y1153160D01*
X1012190Y1103630D02*
X1072515Y1163955D01*
X1088644Y1180084D01*
X1099820Y1179830D02*
X1113790Y1165860D01*
X1099820Y1179830D02*
Y1180084D01*
X1088644D02*
X1099820D01*
X1230884D01*
X1206500Y1089450D02*
X1212515Y1095465D01*
Y1099613D01*
X1233042Y1120140D01*
X1318768Y1078230D02*
X1356360D01*
X1280160Y1079500D02*
X1317498D01*
X1318768Y1078230D01*
X1233042Y1120140D02*
X1304290D01*
X1314450Y1109980D01*
X1055370Y1180084D02*
X1088644D01*
X1027113Y1211176D02*
X1055370Y1180084D01*
X1027113Y1211176D02*
Y1259523D01*
X1066800Y1299210D02*
X1088390D01*
X858520Y1275080D02*
X1042670D01*
X1027113Y1259523D02*
X1042670Y1275080D01*
X1066800Y1299210D01*
X1073580Y1081200D02*
X1144700D01*
X1073577Y1081197D02*
X1073580Y1081200D01*
X1057609Y1081197D02*
X1073577D01*
X1057606Y1081200D02*
X1057609Y1081197D01*
X1015160Y1081200D02*
X1057606D01*
X1012190Y1078230D02*
X1015160Y1081200D01*
X816610Y949960D02*
X845820D01*
X854710Y958850D01*
X877570D01*
X890270Y946150D01*
D16*
X1217930Y947420D02*
X1270000D01*
X1329690D01*
X1568196Y1354836D02*
X1652270Y1270762D01*
Y1263650D02*
Y1270762D01*
X774700Y1140460D02*
X858520Y1224280D01*
X1511554Y1090676D02*
X1527810Y1074420D01*
X858520Y1122680D02*
X870712Y1134872D01*
X846328Y1262888D02*
Y1300480D01*
X896112Y1350264D02*
X1164336D01*
X1189990Y1324610D01*
X1329690Y947420D02*
X1340358Y958088D01*
X1261466Y1056792D02*
X1340358Y977900D01*
X1371854Y1171956D02*
X1451229Y1251331D01*
X1540002Y1166114D02*
Y1214628D01*
X1536700Y1162812D02*
X1540002Y1166114D01*
X1485714Y1144524D02*
X1517210Y1176020D01*
X1527810D01*
X858520Y1097280D02*
X997458D01*
X1001776Y1092962D02*
X1051306D01*
X750570Y1216660D02*
X825500D01*
X858520Y1249680D01*
X1451229Y1251331D02*
X1526921D01*
X1527810Y1252220D01*
X1623060Y1074420D02*
X1656080Y1107440D01*
X1527810Y1074420D02*
X1623060D01*
X1527810Y1226820D02*
X1540002Y1214628D01*
X1522984Y1162812D02*
X1536700D01*
X1489710Y1129538D02*
X1522984Y1162812D01*
X1220216Y1354836D02*
X1568196D01*
X1189990Y1324610D02*
X1220216Y1354836D01*
X846328Y1300480D02*
X896112Y1350264D01*
X750570Y1140460D02*
X774700D01*
X584200D02*
X750570D01*
X732790Y1073150D02*
X858520Y1198880D01*
X732790Y1046480D02*
Y1073150D01*
X1012190Y972820D02*
X1053840D01*
X1084840D02*
X1127760D01*
X1125480Y1223010D02*
X1160780D01*
X1340358Y958088D02*
Y977900D01*
X1077976Y1223010D02*
X1094480D01*
X1076706Y1221740D02*
X1077976Y1223010D01*
X1060450Y1221740D02*
X1076706D01*
X997458Y1097280D02*
X1001776Y1092962D01*
X1113790Y1324610D02*
X1125982Y1312418D01*
X1202182Y1144524D02*
X1485714D01*
X1371854Y1171956D02*
X1447546D01*
X1526921Y1251331D01*
X1125982Y1312418D02*
X1366012D01*
X1051306Y1092962D02*
X1062482D01*
X1198040Y1154524D02*
X1480914D01*
X1176020Y1146810D02*
X1190326D01*
X1198040Y1154524D01*
X1480914D02*
X1527810Y1201420D01*
X1125220Y1166876D02*
X1126236Y1167892D01*
X1125220Y1149350D02*
Y1166876D01*
X1140460Y1141730D02*
Y1143508D01*
X1154430Y1129538D01*
X1080317Y1056792D02*
X1261466D01*
X1203960Y1069086D02*
X1222756D01*
X1243170Y1089820D02*
X1243330Y1089660D01*
X1222756Y1069086D02*
X1243330Y1089660D01*
X1126236Y1167892D02*
X1367790D01*
X1371854Y1171956D01*
X1273565Y1089820D02*
X1274421Y1090676D01*
X1243170Y1089820D02*
X1273565D01*
X1224280Y1094740D02*
X1225981Y1096441D01*
X1271701D01*
X1280160Y1104900D01*
X1274421Y1090676D02*
X1511554D01*
X1154430Y1129538D02*
X1489710D01*
X870712Y1134872D02*
Y1255776D01*
X846328Y1262888D02*
X863600D01*
X870712Y1255776D01*
D18*
X1094480Y1223010D02*
D03*
X1125480D02*
D03*
X1084840Y972820D02*
D03*
X1053840D02*
D03*
D19*
X1230630Y880110D02*
D03*
X1154430D02*
D03*
X1656080Y1107440D02*
D03*
Y1031240D02*
D03*
X1652270Y1263650D02*
D03*
Y1187450D02*
D03*
X750570Y1140460D02*
D03*
Y1216660D02*
D03*
X732790Y1046480D02*
D03*
X631190D02*
D03*
X585470Y1080770D02*
D03*
Y979170D02*
D03*
D20*
X1527810Y1303020D02*
D03*
X858520Y1275080D02*
D03*
D21*
X1527810Y1277620D02*
D03*
Y1252220D02*
D03*
Y1226820D02*
D03*
Y1201420D02*
D03*
Y1176020D02*
D03*
Y1150620D02*
D03*
Y1125220D02*
D03*
Y1099820D02*
D03*
Y1074420D02*
D03*
Y1049020D02*
D03*
Y1023620D02*
D03*
X858520Y1249680D02*
D03*
Y1224280D02*
D03*
Y1198880D02*
D03*
Y1173480D02*
D03*
Y1148080D02*
D03*
Y1122680D02*
D03*
Y1097280D02*
D03*
Y1071880D02*
D03*
Y1046480D02*
D03*
Y1021080D02*
D03*
Y995680D02*
D03*
X1088390Y1324610D02*
D03*
X1113790Y1299210D02*
D03*
Y1324610D02*
D03*
X1139190Y1299210D02*
D03*
Y1324610D02*
D03*
X1164590Y1299210D02*
D03*
Y1324610D02*
D03*
X1189990Y1299210D02*
D03*
Y1324610D02*
D03*
D22*
X1088390Y1299210D02*
D03*
D23*
X1270000Y947420D02*
D03*
Y972820D02*
D03*
X1300480Y1197610D02*
D03*
Y1223010D02*
D03*
X1217930Y947420D02*
D03*
Y972820D02*
D03*
X1248410Y1197610D02*
D03*
Y1223010D02*
D03*
X1012190Y1103630D02*
D03*
Y1078230D02*
D03*
X1356360Y1103630D02*
D03*
Y1078230D02*
D03*
X1280160Y1104900D02*
D03*
Y1079500D02*
D03*
X946150Y854710D02*
D03*
Y880110D02*
D03*
X1012190Y972820D02*
D03*
Y947420D02*
D03*
X1127760Y972820D02*
D03*
Y947420D02*
D03*
X1060450Y1221740D02*
D03*
Y1196340D02*
D03*
X1160780Y1223010D02*
D03*
Y1197610D02*
D03*
X1329690Y947420D02*
D03*
Y972820D02*
D03*
X796290Y877570D02*
D03*
Y852170D02*
D03*
X712470Y976630D02*
D03*
Y951230D02*
D03*
D24*
X661000Y888410D02*
D03*
Y833710D02*
D03*
X591000D02*
D03*
Y888410D02*
D03*
D25*
X598300Y861060D02*
D03*
D26*
X618300D02*
D03*
X638300D02*
D03*
X658300D02*
D03*
D27*
X584200Y1318260D02*
D03*
Y1140460D02*
D03*
X645160Y1318260D02*
D03*
X822960D02*
D03*
D28*
X1080317Y1056792D02*
D03*
X1062482Y1092962D02*
D03*
X1155700Y1092200D02*
D03*
X1569720Y1118870D02*
D03*
Y1022350D02*
D03*
X731520Y877570D02*
D03*
X1366012Y1312418D02*
D03*
X1202182Y1144524D02*
D03*
X756920Y808990D02*
D03*
X1176020Y1146810D02*
D03*
X1125220Y1149350D02*
D03*
X1140460Y1141730D02*
D03*
X1203960Y1069086D02*
D03*
X1224280Y1094740D02*
D03*
D29*
X1083310Y1153160D02*
D03*
X1153160D02*
D03*
X1113790Y1165860D02*
D03*
X1206500Y1089450D02*
D03*
X1314450Y1109980D02*
D03*
X816610Y949960D02*
D03*
X890270Y946150D02*
D03*
D30*
X1144700Y1103200D02*
D03*
X1155700D02*
D03*
X1166700D02*
D03*
X1144700Y1092200D02*
D03*
X1155700D02*
D03*
X1166700D02*
D03*
X1144700Y1081200D02*
D03*
X1155700D02*
D03*
X1166700D02*
D03*
M02*
